<?xml version="1.0" standalone="no"?>
<!DOCTYPE svg PUBLIC "-//W3C//DTD SVG 20010904//EN"
 "http://www.w3.org/TR/2001/REC-SVG-20010904/DTD/svg10.dtd">
<svg version="1.0" xmlns="http://www.w3.org/2000/svg"
 width="275.000000pt" height="275.000000pt" viewBox="0 0 275.000000 275.000000"
 preserveAspectRatio="xMidYMid meet">
<metadata>
Created by potrace 1.11, written by Peter Selinger 2001-2013
</metadata>
<g transform="translate(0.000000,275.000000) scale(0.100000,-0.100000)"
fill="#000000" stroke="none">
<path d="M1043 2687 c-26 -14 -60 -21 -107 -23 -61 -3 -74 -7 -105 -34 -20
-17 -47 -38 -61 -47 -14 -9 -38 -33 -55 -54 -16 -20 -41 -40 -55 -44 -38 -10
-59 -34 -71 -79 -12 -44 -35 -76 -54 -76 -14 0 -50 -67 -54 -100 0 -6 -13 -16
-28 -23 -43 -19 -71 -54 -112 -143 -34 -73 -39 -91 -39 -161 0 -43 -5 -89 -10
-103 -5 -14 -13 -48 -17 -77 -7 -53 1 -80 36 -118 16 -18 75 -171 84 -220 2
-11 7 -30 10 -42 6 -17 1 -24 -27 -36 -18 -9 -42 -17 -53 -19 -29 -5 -35 -83
-7 -92 14 -5 21 -19 25 -47 6 -43 44 -109 64 -109 16 0 26 -18 34 -65 12 -70
41 -169 62 -210 21 -42 135 -209 162 -236 24 -25 19 -49 -10 -49 -26 0 -190
-82 -330 -165 -230 -137 -325 -219 -325 -282 l0 -33 1375 0 1375 0 0 75 0 75
-47 46 -48 45 -130 -4 c-137 -5 -154 -1 -189 40 -15 17 -34 26 -58 27 -68 5
-171 91 -189 158 -5 21 -15 38 -22 39 -57 3 -72 18 -93 87 -18 61 -21 85 -28
199 -2 39 -7 77 -12 84 -5 8 -3 10 6 4 10 -6 12 -4 7 8 -4 10 -2 16 5 14 6 -1
13 4 16 12 3 9 0 11 -9 6 -8 -5 -11 -5 -7 0 5 5 23 9 41 10 23 1 48 13 78 37
35 30 48 49 63 98 21 68 18 154 -7 229 -16 44 -13 58 21 144 9 23 15 66 14
113 -1 63 2 77 18 92 34 29 28 118 -15 205 -37 76 -44 121 -20 134 8 5 17 24
19 42 3 30 -16 63 -64 111 -31 30 -100 180 -83 180 2 0 -10 18 -28 41 -18 23
-51 49 -76 60 -38 16 -48 27 -44 51 2 17 -59 68 -83 68 -19 0 -32 10 -50 39
-14 22 -42 52 -61 67 -35 26 -39 27 -81 16 -53 -14 -91 -15 -96 -3 -4 11 -202
33 -276 31 -30 0 -59 3 -65 9 -25 20 -76 19 -114 -2z m-623 -1503 c0 -104 -9
-113 -40 -40 -15 36 -18 63 -12 113 2 10 17 18 45 22 4 0 7 -42 7 -95z m1610
-234 c0 -5 -5 -10 -11 -10 -5 0 -7 5 -4 10 3 6 8 10 11 10 2 0 4 -4 4 -10z"/>
</g>
</svg>
